<?xml version="1.0" encoding="utf-8"?>
<!-- Designed by Vexels.com - 2019 All Rights Reserved - https://vexels.com/terms-and-conditions/  -->
<svg version="1.1" id="Layer_1" xmlns="http://www.w3.org/2000/svg" xmlns:xlink="http://www.w3.org/1999/xlink" x="0px" y="0px"
	 viewBox="0 0 1200 1200" enable-background="new 0 0 1200 1200" xml:space="preserve">
<g>
	<g id="XMLID_3_">
		<g>
			<g>
				<path fill="#03273D" d="M1172.774,632.769c2.989,26.18-20.975,67.64-126.106,33.807c-2.036-0.644-1.881-3.195,0.232-3.711
					c12.807-3.066,40.352-12.059,61.584-35.688C1137.163,595.303,1170.403,612.078,1172.774,632.769z"/>
			</g>
			<g>
				<path fill="#03273D" d="M1041.797,694.173c110.362,4.174,118.711,51.329,106.935,74.88
					c-9.302,18.656-46.278,23.062-62.306-16.697c-11.879-29.478-34.683-47.361-45.686-54.627
					C1038.937,696.544,1039.684,694.07,1041.797,694.173z"/>
			</g>
			<g>
				<path fill="#0A6D7A" d="M1166.306,502.179c0,0-29.968,110.388-208.408,162.078l-0.309,1.752
					c150.019,109.589,140.407,223.559,140.407,223.559s-93.897,65.295-263.808-9.817l-1.366,1.159
					c44.475,180.373-36.152,261.489-36.152,261.489s-113.893-10.333-195.782-177.075h-1.778
					c-81.889,166.742-195.782,177.075-195.782,177.075s-80.627-81.116-36.152-261.489l-1.366-1.159
					c-169.911,75.112-263.808,9.817-263.808,9.817s-9.611-113.97,140.382-223.559l-0.309-1.752
					C63.636,612.567,33.694,502.179,33.694,502.179s65.888-93.485,251.259-81.013l0.876-1.52
					c-103.482-154.296-55.452-258.113-55.452-258.113s110.569-29.246,244.534,99.437l1.675-0.593
					C496.479,75.675,599.987,27,599.987,27s103.508,48.675,123.427,233.377l1.675,0.593
					c133.965-128.683,244.534-99.437,244.534-99.437s48.005,103.817-55.452,258.113l0.876,1.52
					C1100.393,408.695,1166.306,502.179,1166.306,502.179z M1126.006,509.291c-30.406-6.622-60.219-15.564-89.723-25.355
					c-27.314-9.044-52.952-16.723-81.941-9.895c-7.138,1.675-13.116,4.638-18.346,8.452c-32.57-16.723-68.645-29.272-92.196-19.558
					l-1.443-2.474c20.176-15.538,27.365-53.055,29.169-89.62c5.927-2.628,11.492-6.339,16.517-11.673
					c20.382-21.671,26.566-47.721,32.39-75.885c6.262-30.457,13.451-60.76,22.882-90.393
					c-27.545,14.456-56.122,26.772-85.033,38.239c-26.721,10.616-51.303,21.232-69.109,45.093c-4.38,5.849-7.06,11.956-8.581,18.269
					c-35.714,8.091-71.453,21.696-83.255,44.294l-2.68-0.979c5.463-24.891-13.141-58.235-35.276-87.403
					c2.86-5.823,4.741-12.24,5.154-19.558c1.675-29.71-10.333-53.648-23.99-78.952c-14.739-27.365-28.731-55.194-40.558-83.976
					c-11.802,28.782-25.793,56.611-40.558,83.976c-13.657,25.304-25.639,49.242-23.964,78.952
					c0.412,7.318,2.293,13.734,5.154,19.532c-22.134,29.169-40.738,62.538-35.276,87.429l-2.68,0.979
					c-11.802-22.598-47.515-36.178-83.229-44.294c-1.546-6.313-4.226-12.42-8.606-18.269
					c-17.805-23.861-42.388-34.477-69.109-45.093c-28.911-11.467-57.513-23.783-85.059-38.239
					c9.457,29.633,16.62,59.935,22.907,90.393c5.823,28.164,12.008,54.215,32.39,75.885c5.025,5.334,10.565,9.044,16.517,11.673
					c1.726,35.198,8.452,71.273,26.979,87.79l-1.34,3.504c-23.552-8.194-58.492,4.123-90.109,20.356
					c-5.257-3.814-11.235-6.777-18.372-8.452c-28.963-6.828-54.601,0.85-81.915,9.895c-29.504,9.792-59.343,18.733-89.723,25.355
					c26.283,16.62,51.252,35.25,75.628,54.524c22.572,17.857,44.062,33.833,73.618,37.311c7.266,0.85,13.914,0.129,20.15-1.701
					c24.325,26.309,53.21,49.989,78.282,49.989l1.134,3.144c-23.835,8.271-43.058,40.635-57.049,73.901
					c-6.468,0.412-12.961,2.01-19.48,5.308c-26.592,13.399-41.305,35.74-56.405,60.245c-16.311,26.463-33.421,52.463-52.437,77.096
					c30.818-4.174,61.919-5.952,92.995-6.854c28.757-0.85,55.477-2.396,80.369-18.733c6.133-4.02,10.745-8.838,14.353-14.249
					c35.559,4.509,72.922,4.071,92.119-12.085l3.401,0.799c-13.657,21.516-7.576,59.214,3.247,94.206
					c-4.69,4.484-8.632,9.869-11.518,16.594c-11.75,27.339-8.658,53.931-4.484,82.405c4.509,30.741,8.143,61.687,9.405,92.763
					c20.949-23.01,43.599-44.372,66.815-65.037c21.516-19.12,40.97-37.492,49.551-65.991c2.113-7.009,2.551-13.683,1.829-20.124
					c30.792-19.815,59.703-44.81,63.053-70.062h2.86c3.376,25.252,32.287,50.247,63.053,70.088
					c-0.721,6.442-0.283,13.09,1.829,20.099c8.581,28.499,28.035,46.871,49.525,65.991c23.242,20.666,45.892,42.027,66.841,65.037
					c1.263-31.076,4.87-62.022,9.405-92.763c4.174-28.473,7.266-55.065-4.484-82.405c-2.886-6.725-6.828-12.111-11.518-16.594
					c10.822-34.992,16.904-72.69,3.247-94.206l2.19-1.855c18.81,17.187,56.998,17.728,93.33,13.141
					c3.607,5.411,8.22,10.23,14.353,14.249c24.891,16.337,51.612,17.883,80.369,18.733c31.076,0.902,62.151,2.68,92.995,6.854
					c-19.016-24.634-36.126-50.633-52.437-77.096c-15.1-24.505-29.813-46.845-56.405-60.245c-6.519-3.298-13.038-4.896-19.506-5.308
					c-14.198-33.755-33.781-66.558-58.054-74.262l0.515-2.809c25.458,1.056,55.065-23.088,79.931-49.963
					c6.236,1.83,12.884,2.551,20.15,1.701c29.555-3.479,51.045-19.455,73.592-37.311
					C1074.754,544.541,1099.723,525.911,1126.006,509.291z"/>
			</g>
			<g>
				<path fill="#03273D" d="M1127.706,377.258c4.844,20.279-20.64,47.412-58.467,27.262c-28.061-14.945-56.998-13.966-70.113-12.471
					c-2.139,0.232-3.144-2.113-1.469-3.427C1084.881,320.905,1121.574,351.645,1127.706,377.258z"/>
			</g>
			<g>
				<path fill="#FFCB3F" d="M1036.283,483.936c29.504,9.792,59.317,18.733,89.723,25.355c-26.283,16.62-51.252,35.25-75.653,54.524
					c-22.547,17.857-44.037,33.833-73.592,37.311c-7.266,0.85-13.914,0.129-20.15-1.701c30.431-32.828,53.751-69.753,53.751-69.753
					s-34.554-26.721-74.365-47.18c5.231-3.814,11.209-6.777,18.346-8.452C983.331,467.213,1008.969,474.891,1036.283,483.936z"/>
			</g>
			<g>
				<path fill="#03273D" d="M1058.521,257.413c19.12,18.115,27.391,65.295-74.881,106.961c-1.958,0.799-3.504-1.263-2.216-2.989
					c7.859-10.59,23.165-35.173,24.273-66.944C1007.14,251.59,1043.395,243.087,1058.521,257.413z"/>
			</g>
			<g>
				<path fill="#FFCB3F" d="M1062.566,869.109c-30.844-4.174-61.919-5.952-92.995-6.854c-28.757-0.85-55.478-2.396-80.369-18.733
					c-6.133-4.02-10.745-8.838-14.353-14.249c44.397-5.592,86.012-18.888,86.012-18.888s-9.302-42.671-26.644-83.925
					c6.468,0.412,12.987,2.01,19.506,5.308c26.592,13.399,41.305,35.74,56.405,60.245
					C1026.44,818.476,1043.55,844.475,1062.566,869.109z"/>
			</g>
			<g>
				<path fill="#03273D" d="M973.385,948.164c42.439-6.004,57.101,28.215,45.609,45.583c-14.507,21.98-59.523,38.342-118.325-55.143
					c-1.134-1.804,0.644-3.685,2.577-2.706C915.021,941.773,941.897,952.596,973.385,948.164z"/>
			</g>
			<g>
				<path fill="#50A5A6" d="M1010.361,529.673c0,0-23.32,36.925-53.751,69.753c-14.404-4.2-26.592-14.198-39.27-23.783
					c12.059-17.934,17.96-32.725,17.96-32.725s-10.59-11.879-28.087-24.608c8.658-13.348,16.697-26.927,28.782-35.817
					C975.807,502.952,1010.361,529.673,1010.361,529.673z"/>
			</g>
			<g>
				<path fill="#50A5A6" d="M934.218,726.46c17.342,41.254,26.644,83.925,26.644,83.925s-41.615,13.296-86.012,18.888
					c-8.323-12.471-11.235-27.984-14.791-43.47c20.769-5.978,34.786-13.528,34.786-13.528s-0.464-15.899-5.695-36.899
					C904.353,730.711,919.247,725.481,934.218,726.46z"/>
			</g>
			<g>
				<path fill="#FFCB3F" d="M943.314,192.891c-9.431,29.633-16.62,59.935-22.882,90.393c-5.823,28.164-12.008,54.215-32.39,75.885
					c-5.025,5.334-10.59,9.044-16.517,11.673c2.19-44.707-3.685-87.996-3.685-87.996s-43.599,1.726-87.249,11.647
					c1.52-6.313,4.2-12.42,8.581-18.269c17.805-23.861,42.388-34.477,69.109-45.093
					C887.192,219.664,915.768,207.347,943.314,192.891z"/>
			</g>
			<g>
				<path fill="#03273D" d="M934.218,726.46c-14.971-0.979-29.865,4.252-45.067,8.916c-8.555-34.529-29.942-82.843-83.023-96.809
					l0.052-0.335c54.679,5.025,91.294-33.06,111.161-62.589c12.678,9.586,24.866,19.583,39.27,23.783
					c-24.866,26.876-54.473,51.02-79.931,49.963l-0.515,2.809C900.437,659.902,920.02,692.704,934.218,726.46z"/>
			</g>
			<g>
				<path fill="#FFCB3F" d="M935.3,542.918c0,0-5.901,14.791-17.96,32.725c-13.451-10.178-27.417-19.841-45.119-21.593
					c16.027-7.704,25.845-21.593,34.992-35.74C924.71,531.039,935.3,542.918,935.3,542.918z"/>
			</g>
			<g>
				<path fill="#03273D" d="M879.23,956.59c81.838,74.133,57.925,115.645,33.781,126.106c-19.12,8.297-50.272-12.085-37.002-52.849
					c9.843-30.225,3.865-58.57,0.103-71.196C875.494,956.564,877.658,955.172,879.23,956.59z"/>
			</g>
			<g>
				<path fill="#03273D" d="M935.996,482.493c-12.085,8.89-20.124,22.469-28.782,35.817
					c-28.757-20.949-76.195-44.191-125.823-20.769l-0.18-0.335c45.119-31.282,48.675-83.976,44.913-119.355
					c15.873-0.825,31.668-0.979,45.402-7.009c-1.804,36.564-8.993,74.082-29.169,89.62l1.443,2.474
					C867.351,453.221,903.426,465.77,935.996,482.493z"/>
			</g>
			<g>
				<path fill="#FFCB3F" d="M889.15,735.375c5.231,21.001,5.695,36.899,5.695,36.899s-14.018,7.55-34.786,13.528
					c-3.788-16.44-8.271-32.828-20.691-45.557C856.606,744.652,873.046,740.323,889.15,735.375z"/>
			</g>
			<g>
				<path fill="#92D1C8" d="M806.127,638.567c53.081,13.966,74.468,62.28,83.023,96.809c-16.105,4.947-32.544,9.276-49.783,4.87
					c-38.6-39.502-33.884-100.545-33.884-100.545L806.127,638.567z"/>
			</g>
			<g>
				<path fill="#92D1C8" d="M907.213,518.31c-9.147,14.146-18.965,28.035-34.992,35.74c-54.988-5.437-90.624-55.246-90.624-55.246
					l-0.206-1.263C831.019,474.118,878.457,497.361,907.213,518.31z"/>
			</g>
			<g>
				<path fill="#92D1C8" d="M872.221,554.049c17.702,1.752,31.668,11.415,45.119,21.593c-19.867,29.53-56.482,67.614-111.161,62.589
					l-0.206-1.288C805.973,636.943,822.412,577.961,872.221,554.049z"/>
			</g>
			<g>
				<path fill="#50A5A6" d="M867.841,282.846c0,0,5.875,43.289,3.685,87.996c-13.734,6.03-29.53,6.184-45.402,7.009
					c-2.268-21.516-7.266-36.616-7.266-36.616s-15.744-2.293-37.337-0.825c-1.958-15.77-4.535-31.359-0.928-45.918
					C824.242,284.572,867.841,282.846,867.841,282.846z"/>
			</g>
			<g>
				<path fill="#03273D" d="M860.059,785.802c3.556,15.486,6.468,30.998,14.791,43.47c-36.332,4.587-74.52,4.046-93.33-13.141
					l-2.19,1.855c13.657,21.516,7.576,59.214-3.247,94.206c-10.848-10.359-25.613-15.924-40.275-22.109
					c15.615-31.952,30.303-82.714-1.391-127.549l0.283-0.232C773.351,801.289,825.865,795.646,860.059,785.802z"/>
			</g>
			<g>
				<path fill="#03273D" d="M859.75,90.646c16.749,12.394,14.688,49.577-27.262,58.467c-31.101,6.571-52.643,25.922-61.713,35.508
					c-1.495,1.572-3.788,0.412-3.35-1.675C790.718,75.005,838.595,74.953,859.75,90.646z"/>
			</g>
			<g>
				<path fill="#92D1C8" d="M839.368,740.245c12.42,12.729,16.904,29.117,20.691,45.557c-34.194,9.843-86.708,15.486-125.359-23.5
					l0.644-1.134C735.344,761.169,785.848,726.563,839.368,740.245z"/>
			</g>
			<g>
				<path fill="#92D1C8" d="M826.123,377.851c3.762,35.379,0.206,88.073-44.913,119.355l-1.005-0.825
					c0,0-25.304-55.761-2.525-106.085C792.342,380.273,809.271,378.701,826.123,377.851z"/>
			</g>
			<g>
				<path fill="#50A5A6" d="M391.553,639.211l-0.232-0.773c0.825-0.052,1.649-0.129,2.474-0.206l0.232-1.288
					c0,0-16.44-58.982-66.248-82.894c54.988-5.437,90.599-55.246,90.599-55.246l0.232-1.263l0.18-0.335l0.979-0.825
					c0,0,25.329-55.761,2.551-106.085c45.609,31.179,104.925,15.924,104.925,15.924l0.979-0.825l0.335-0.129h1.288
					c0,0,55.246-26.438,70.139-79.647c14.919,53.21,70.165,79.647,70.165,79.647h1.288l0.335,0.129l0.979,0.825
					c0,0,59.317,15.254,104.925-15.924c-22.779,50.324,2.525,106.085,2.525,106.085l1.005,0.825l0.18,0.335l0.206,1.263
					c0,0,35.636,49.809,90.624,55.246c-49.809,23.912-66.248,82.894-66.248,82.894l0.206,1.288l-0.052,0.335l-0.644,1.134
					c0,0-4.715,61.043,33.884,100.545c-53.519-13.683-104.024,20.923-104.024,20.923l-0.644,1.134l-0.283,0.232l-1.211,0.438
					c0,0-42.851,43.728-38.677,98.818c-28.164-39.27-78.359-48.752-90.47-50.504c-1.726-0.232-2.68-0.335-2.68-0.335h-2.783
					c0,0-60.94,5.952-93.15,50.839c4.2-55.091-38.651-98.818-38.651-98.818l-1.211-0.438l-0.283-0.232l-0.644-1.134
					c0,0-50.504-34.606-104.049-20.923c38.626-39.502,33.91-100.545,33.91-100.545l-4.587-0.026
					C390.471,639.52,391.012,639.366,391.553,639.211z M770.542,601.642c15.512-2.731,25.922-17.445,23.371-32.957
					c-0.026-0.18-0.052-0.387-0.103-0.567c-0.026-0.232-0.052-0.464-0.103-0.696c-2.757-15.641-17.677-26.077-33.317-23.32
					c-6.107,1.082-11.415,3.994-15.461,8.091l-1.52-0.18c6.313-6.39,9.534-15.667,7.859-25.201c-0.67-3.736-2.01-7.163-3.917-10.204
					c-1.649-2.938-3.839-5.643-6.571-7.936c-7.936-6.674-18.424-8.323-27.571-5.282l-0.258-1.366
					c6.571-1.082,12.806-4.432,17.419-9.921c10.23-12.162,8.632-30.303-3.53-40.507c-0.18-0.155-0.361-0.309-0.567-0.438
					c-0.052-0.077-0.103-0.103-0.155-0.155c-0.103-0.077-0.206-0.18-0.309-0.232c-12.162-9.946-30.071-8.297-40.197,3.788
					c-3.942,4.715-6.133,10.307-6.622,16.002l-1.211-0.077c0.361-8.606-3.118-17.316-10.255-23.294
					c-2.86-2.396-6.081-4.149-9.431-5.257c-3.195-1.237-6.648-1.907-10.281-1.907c-9.431,0-17.805,4.535-23.036,11.544l-1.288-0.335
					c3.582-4.819,5.72-10.771,5.72-17.213c0-15.873-12.858-28.757-28.757-28.757c-0.155,0-0.309,0-0.464,0s-0.309,0-0.464,0
					c-15.873,0-28.757,12.884-28.757,28.757c0,6.442,2.139,12.394,5.72,17.213l-1.263,0.335
					c-5.231-7.009-13.605-11.544-23.036-11.544c-3.607,0-7.06,0.67-10.23,1.881c-3.376,1.108-6.596,2.86-9.482,5.282
					c-7.447,6.262-10.925,15.486-10.178,24.505l-1.211,0.077c-0.258-6.107-2.474-12.162-6.7-17.213
					c-10.23-12.188-28.344-13.76-40.532-3.556c-0.129,0.103-0.258,0.232-0.387,0.335c-0.103,0.077-0.206,0.18-0.309,0.258
					c-12.162,10.204-13.76,28.344-3.556,40.507c4.612,5.488,10.848,8.838,17.419,9.921l-0.258,1.366
					c-9.147-3.041-19.609-1.391-27.546,5.282c-2.577,2.164-4.69,4.715-6.313,7.473c-0.026,0.052-0.052,0.103-0.103,0.155
					c-1.984,3.118-3.401,6.648-4.071,10.513c-1.675,9.534,1.546,18.81,7.859,25.201l-1.52,0.18
					c-4.046-4.097-9.354-7.009-15.461-8.091c-15.641-2.757-30.56,7.679-33.317,23.32c-0.052,0.232-0.077,0.464-0.103,0.696
					c-0.026,0.077-0.052,0.129-0.052,0.206c-0.026,0.129-0.052,0.232-0.052,0.361c-2.551,15.512,7.859,30.225,23.371,32.957
					c6.055,1.056,12.008,0.155,17.187-2.268l0.541,1.108c-7.653,3.994-13.451,11.364-15.048,20.511
					c-0.644,3.582-0.567,7.138,0.103,10.513c0.49,3.479,1.675,6.932,3.53,10.152c4.664,8.065,12.652,13.038,21.232,14.146
					l-0.129,1.211c-5.72-0.515-11.647,0.644-17.007,3.736c-13.734,7.936-18.45,25.536-10.513,39.27
					c0.077,0.155,0.155,0.283,0.258,0.412c0.052,0.129,0.129,0.258,0.206,0.387c7.936,13.76,25.536,18.475,39.27,10.539
					c5.772-3.324,9.946-8.349,12.291-14.095l1.211,0.283c-3.994,8.297-3.942,18.346,1.005,26.901
					c1.752,3.015,3.968,5.617,6.493,7.704c0.052,0.052,0.077,0.103,0.129,0.129c2.654,2.422,5.849,4.355,9.431,5.669
					c8.787,3.195,18.14,1.829,25.458-2.912l0.67,1.056c-4.767,3.272-8.581,8.014-10.694,13.837
					c-5.437,14.919,2.242,31.436,17.187,36.873c0.18,0.077,0.387,0.129,0.567,0.18c0.103,0.052,0.18,0.103,0.283,0.129
					c14.945,5.437,31.436-2.268,36.873-17.187c2.242-6.158,2.242-12.6,0.438-18.424l1.185-0.309
					c2.371,8.709,8.787,16.13,17.883,19.454c3.479,1.263,7.034,1.83,10.513,1.726c3.453,0.077,7.009-0.464,10.462-1.726
					c9.148-3.324,15.564-10.771,17.908-19.48l1.185,0.335c-1.804,5.823-1.804,12.265,0.438,18.424
					c5.385,14.816,21.671,22.495,36.513,17.29c0.155-0.052,0.309-0.103,0.49-0.18c0.232-0.052,0.49-0.155,0.721-0.232
					c14.919-5.437,22.624-21.954,17.187-36.873c-2.242-6.133-6.339-11.029-11.415-14.301l0.67-1.031
					c7.421,5.076,17.084,6.648,26.18,3.35c3.556-1.288,6.7-3.221,9.354-5.643c0.077-0.026,0.129-0.077,0.206-0.155
					c2.525-2.087,4.741-4.69,6.493-7.704c4.947-8.555,4.973-18.604,1.005-26.876l1.211-0.309
					c2.319,5.746,6.493,10.771,12.265,14.095c13.76,7.936,31.359,3.221,39.295-10.539c0.077-0.129,0.155-0.258,0.206-0.387
					c0.103-0.129,0.18-0.258,0.258-0.412c7.936-13.734,3.221-31.333-10.539-39.27c-5.669-3.272-12.008-4.406-18.037-3.633
					l-0.129-1.211c8.993-0.825,17.445-5.849,22.289-14.249c1.855-3.221,3.041-6.674,3.53-10.152
					c0.67-3.376,0.747-6.931,0.103-10.513c-1.675-9.586-7.936-17.213-16.13-21.052l0.541-1.108
					C757.684,601.668,764.049,602.776,770.542,601.642z"/>
			</g>
			<g>
				<path fill="#FFCB3F" d="M818.857,341.235c0,0,4.999,15.1,7.266,36.616c-16.852,0.85-33.781,2.422-48.443,12.446
					c7.318-16.208,5.927-33.137,3.839-49.886C803.113,338.942,818.857,341.235,818.857,341.235z"/>
			</g>
			<g>
				<path fill="#03273D" d="M793.914,568.685c1.984,15.177-8.297,29.375-23.526,32.055c-15.615,2.757-30.509-7.679-33.292-23.268
					c-0.026-0.026-0.026-0.052-0.026-0.077c-0.026-0.103-0.052-0.232-0.052-0.335c-1.984-15.177,8.297-29.375,23.526-32.055
					c15.564-2.757,30.432,7.576,33.266,23.113C793.862,568.299,793.888,568.505,793.914,568.685z"/>
			</g>
			<g>
				<path fill="#FFCB3F" d="M787.601,928.786c11.75,27.339,8.658,53.931,4.484,82.405c-4.535,30.741-8.143,61.687-9.405,92.763
					c-20.949-23.01-43.599-44.372-66.841-65.037c-21.49-19.12-40.945-37.492-49.525-65.991c-2.113-7.009-2.551-13.657-1.829-20.099
					c37.621,24.221,78.024,40.79,78.024,40.79s20.331-38.677,33.575-81.425C780.772,916.676,784.715,922.061,787.601,928.786z"/>
			</g>
			<g>
				<path fill="#92D1C8" d="M781.519,340.411c2.087,16.749,3.479,33.678-3.839,49.886c-45.609,31.179-104.925,15.924-104.925,15.924
					l-0.979-0.825C694.734,355.536,746.012,342.858,781.519,340.411z"/>
			</g>
			<g>
				<path fill="#03273D" d="M780.592,294.493c-3.607,14.559-1.031,30.148,0.928,45.918c-35.508,2.448-86.785,15.126-109.744,64.986
					l-0.335-0.129c14.43-52.952-16.723-95.623-42.336-120.309c11.621-10.822,23.603-21.078,30.277-34.554
					c22.134,29.169,40.738,62.512,35.276,87.403l2.68,0.979C709.138,316.189,744.878,302.584,780.592,294.493z"/>
			</g>
			<g>
				<path fill="#03273D" d="M759.643,661.551c13.631,7.859,18.398,25.201,10.745,38.883c-8.039,13.451-25.433,17.986-39.038,10.127
					c-13.605-7.859-18.372-25.226-10.694-38.935C728.696,658.227,746.063,653.692,759.643,661.551z"/>
			</g>
			<g>
				<path fill="#03273D" d="M753.69,602.363c10.539,6.081,15.77,17.805,14.069,29.143c-2.216,11.338-11.183,20.691-23.217,22.804
					c-15.641,2.757-30.56-7.679-33.317-23.32c-0.541-2.989-0.567-5.978-0.18-8.838c0-0.155,0.026-0.283,0.077-0.438
					c0.567-3.015,1.675-6.004,3.298-8.813C722.357,599.142,739.931,594.427,753.69,602.363z"/>
			</g>
			<g>
				<path fill="#50A5A6" d="M662.267,527.818c-3.53,0.799-18.862,3.711-34.812-1.031c-15.306-6.596-25.226-18.707-27.468-21.619
					c-2.242,2.912-12.137,14.997-27.442,21.619c-15.95,4.741-31.282,1.829-34.812,1.031c0.155,3.607,0.361,19.351-7.215,34.322
					c-9.173,13.837-22.753,21.439-25.922,23.088c2.396,2.628,12.6,14.43,16.491,30.612c1.958,16.646-3.633,31.359-4.999,34.657
					c3.582,0.464,19.016,2.963,32.416,12.935c12.111,11.441,17.264,26.231,18.346,29.658c3.015-1.907,16.491-9.946,33.163-10.925
					c16.672,1.005,30.122,9.019,33.137,10.925c1.056-3.427,6.184-18.166,18.269-29.607c13.425-9.998,28.911-12.523,32.493-12.987
					c-1.366-3.298-6.957-18.012-4.999-34.657c3.891-16.182,14.095-27.984,16.491-30.612c-3.195-1.675-16.826-9.302-25.999-23.216
					C661.906,547.066,662.113,531.425,662.267,527.818z M752.273,598.833l-0.541,1.108c-5.179-2.422-11.132-3.324-17.187-2.268
					c-12.471,2.19-21.645,12.137-23.423,24.041c-0.052,0.155-0.077,0.283-0.077,0.438c-2.139,11.595,3.092,23.783,13.889,30.019
					c5.36,3.092,11.286,4.252,17.007,3.736l0.129,1.211c-8.581,1.108-16.569,6.081-21.232,14.146
					c-0.077,0.129-0.129,0.232-0.18,0.361c-0.103,0.129-0.206,0.283-0.283,0.438c-4.612,7.988-4.947,17.264-1.752,25.201
					l-1.211,0.309c-2.422-5.025-6.339-9.405-11.518-12.394c-10.848-6.262-24.093-4.638-33.111,3.066
					c-0.103,0.103-0.232,0.18-0.335,0.283c-9.302,7.498-13.296,20.356-8.967,32.235c2.139,5.823,5.952,10.565,10.694,13.837
					l-0.67,1.031c-7.215-4.664-16.388-6.055-25.098-2.989c-0.103,0.026-0.232,0.052-0.335,0.103
					c-0.052,0.026-0.103,0.026-0.155,0.077c-0.232,0.052-0.49,0.155-0.721,0.232c-8.761,3.195-15.022,10.178-17.625,18.45
					l-1.185-0.335c1.52-5.54,1.391-11.57-0.721-17.393c-4.303-11.879-15.667-19.171-27.649-18.888
					c-12.008-0.283-23.371,7.009-27.7,18.888c-2.113,5.823-2.242,11.879-0.696,17.419l-1.185,0.309
					c-2.603-8.271-8.864-15.254-17.625-18.45c-0.232-0.077-0.49-0.18-0.721-0.232c-0.18-0.077-0.335-0.129-0.49-0.18
					c-8.993-3.169-18.501-1.572-25.819,3.453l-0.67-1.056c5.076-3.247,9.199-8.168,11.415-14.275
					c4.303-11.879,0.335-24.737-8.967-32.235c-0.103-0.103-0.232-0.206-0.335-0.283c-9.019-7.704-22.263-9.328-33.111-3.066
					c-5.179,2.989-9.096,7.37-11.518,12.368l-1.211-0.283c3.195-7.936,2.86-17.213-1.752-25.201
					c-0.077-0.155-0.18-0.309-0.283-0.438c-0.052-0.129-0.103-0.232-0.18-0.361c-4.844-8.4-13.296-13.425-22.289-14.249l0.129-1.211
					c6.03,0.773,12.368-0.361,18.063-3.633c10.797-6.236,16.027-18.424,13.889-30.019c0-0.155-0.026-0.283-0.077-0.438
					c-1.778-11.905-10.951-21.851-23.423-24.041c-6.493-1.134-12.858-0.026-18.269,2.809l-0.541-1.108
					c8.194-3.839,14.456-11.467,16.13-21.052c0.052-0.283,0.103-0.567,0.129-0.85c0.026-0.129,0.052-0.283,0.077-0.412
					c1.546-9.431-1.675-18.527-7.911-24.866l1.52-0.18c4.071,4.123,9.379,7.035,15.486,8.117
					c12.446,2.19,24.402-3.968,30.174-14.456c0.077-0.103,0.155-0.232,0.206-0.361c6.055-10.204,5.334-23.526-2.706-33.111
					c-3.556-4.226-8.091-7.189-12.987-8.813l0.258-1.366c7.988,1.288,16.44-0.773,23.113-6.365c0.129-0.103,0.258-0.232,0.387-0.335
					c0.103-0.077,0.206-0.18,0.309-0.258c7.112-5.978,10.616-14.662,10.255-23.294l1.211-0.077c0.49,5.695,2.68,11.286,6.622,16.002
					c7.988,9.508,20.794,12.575,31.823,8.555c0.129-0.052,0.258-0.077,0.387-0.129c11.492-3.762,19.815-14.584,19.815-27.339
					c0-6.468-2.139-12.42-5.72-17.213l1.263-0.335c5.231,7.009,13.605,11.544,23.036,11.544c0.155,0,0.309,0,0.464,0
					s0.309,0,0.464,0c9.431,0,17.805-4.535,23.036-11.544l1.288,0.335c-3.582,4.793-5.72,10.745-5.72,17.213
					c0,12.755,8.323,23.577,19.815,27.339c0.129,0.052,0.258,0.077,0.387,0.129c11.029,4.02,23.835,0.953,31.797-8.555
					c4.252-5.025,6.442-11.106,6.725-17.213l1.211,0.077c-0.747,9.019,2.731,18.243,10.178,24.505
					c0.103,0.077,0.206,0.18,0.309,0.258c0.129,0.103,0.258,0.232,0.386,0.335c6.674,5.592,15.126,7.653,23.088,6.365l0.258,1.366
					c-4.896,1.623-9.405,4.587-12.961,8.813c-8.014,9.56-8.761,22.804-2.783,32.982c0.026,0.077,0.052,0.129,0.103,0.206
					c5.695,10.668,17.805,16.955,30.354,14.739c6.107-1.082,11.415-3.994,15.486-8.117l1.52,0.18
					c-6.236,6.339-9.457,15.435-7.911,24.866c0,0.103,0.026,0.232,0.052,0.335c0,0.026,0,0.052,0.026,0.077
					c0.026,0.283,0.077,0.567,0.129,0.85C738.823,587.47,744.62,594.839,752.273,598.833z"/>
			</g>
			<g>
				<path fill="#03273D" d="M747.352,516.609c5.695,10.127,4.87,23.139-3.041,32.57c-10.204,12.162-28.344,13.76-40.507,3.53
					c-2.551-2.139-4.612-4.612-6.236-7.318c-0.052-0.077-0.077-0.129-0.103-0.206c-1.366-2.577-2.345-5.385-2.86-8.374
					c-2.757-15.641,7.704-30.56,23.345-33.317C729.856,501.406,741.322,506.946,747.352,516.609z"/>
			</g>
			<g>
				<path fill="#50A5A6" d="M735.808,890.084c14.662,6.184,29.427,11.75,40.275,22.109c-13.245,42.748-33.575,81.425-33.575,81.425
					s-40.404-16.568-78.024-40.79c1.623-14.945,9.379-28.705,16.594-42.877c19.789,8.813,35.379,12.033,35.379,12.033
					S726.3,909.512,735.808,890.084z"/>
			</g>
			<g>
				<path fill="#03273D" d="M729.727,43.311c26.283,1.598,62.95,32.416,11.389,130.049c-0.979,1.907-3.479,1.314-3.607-0.85
					c-0.799-13.167-4.87-41.846-24.453-66.867C686.618,71.861,708.932,42.048,729.727,43.311z"/>
			</g>
			<g>
				<path fill="#92D1C8" d="M734.416,762.534c31.694,44.836,17.007,95.598,1.391,127.549c-15.538-6.571-30.895-13.837-41.28-28.293
					c-4.174-55.091,38.677-98.818,38.677-98.818L734.416,762.534z"/>
			</g>
			<g>
				<path fill="#03273D" d="M726.274,451.159c12.059,10.204,13.554,28.241,3.401,40.352c-10.127,12.085-28.035,13.734-40.197,3.814
					c-11.802-10.255-13.27-28.138-3.144-40.172c9.921-11.827,27.339-13.657,39.476-4.38c0.103,0.052,0.206,0.155,0.309,0.232
					C726.171,451.056,726.222,451.082,726.274,451.159z"/>
			</g>
			<g>
				<path fill="#03273D" d="M717.539,701.079c4.097,11.26,0.696,23.448-7.627,31.076c-0.077,0.077-0.129,0.129-0.206,0.155
					c-8.993,7.395-21.928,8.813-32.57,2.68c-13.76-7.936-18.475-25.536-10.539-39.296c1.598-2.757,3.582-5.154,5.849-7.163
					c0.103-0.103,0.232-0.18,0.335-0.283c2.319-1.804,4.973-3.298,7.885-4.355C695.585,678.455,712.102,686.159,717.539,701.079z"/>
			</g>
			<g>
				<path fill="#FFCB3F" d="M735.808,890.084c-9.508,19.429-19.351,31.9-19.351,31.9s-15.589-3.221-35.379-12.033
					c7.704-14.997,14.791-30.431,13.451-48.16C704.913,876.247,720.27,883.513,735.808,890.084z"/>
			</g>
			<g>
				<path fill="#92D1C8" d="M694.528,861.791c1.34,17.728-5.746,33.163-13.451,48.16c-32.519-14.43-76.349-43.856-80.91-98.561
					l3.891-0.103C616.169,813.039,666.364,822.521,694.528,861.791z"/>
			</g>
			<g>
				<path fill="#03273D" d="M684.041,750.243c5.411,14.894-2.19,31.308-17.032,36.796c-0.18,0.077-0.335,0.129-0.49,0.18
					c-14.584,4.587-30.354-3.092-35.637-17.599c-5.411-14.894,2.216-31.308,17.032-36.796c0.052-0.052,0.103-0.052,0.155-0.077
					c0.103-0.052,0.232-0.077,0.335-0.103C662.989,728.057,678.784,735.736,684.041,750.243z"/>
			</g>
			<g>
				<path fill="#FFCB3F" d="M627.455,526.787c15.95,4.741,31.282,1.829,34.812,1.031c-0.155,3.607-0.361,19.248,7.138,34.194
					c9.173,13.914,22.804,21.542,25.999,23.216c-2.396,2.628-12.6,14.43-16.491,30.612c-1.958,16.646,3.633,31.359,4.999,34.657
					c-3.582,0.464-19.068,2.989-32.493,12.987c-12.085,11.441-17.213,26.18-18.269,29.607c-3.015-1.907-16.465-9.92-33.137-10.925
					c-16.672,0.979-30.148,9.019-33.163,10.925c-1.082-3.427-6.236-18.218-18.346-29.658c-13.399-9.972-28.834-12.471-32.416-12.935
					c1.366-3.298,6.957-18.012,4.999-34.657c-3.891-16.182-14.095-27.984-16.491-30.612c3.169-1.649,16.749-9.25,25.922-23.088
					c7.576-14.971,7.37-30.715,7.215-34.322c3.53,0.799,18.862,3.711,34.812-1.031c15.306-6.622,25.201-18.707,27.442-21.619
					C602.229,508.08,612.149,520.191,627.455,526.787z M665.772,640.01c0,0,1.056-26.025-24.711-30.56l-0.026-0.335
					c25.845,4.612,33.755-20.253,33.755-20.253s-16.208-21.001-39.218-7.163l-0.18-0.283c23.5-13.013,13.425-37.543,13.425-37.543
					s-25.175-5.514-34.245,18.656l-0.335-0.129c8.581-24.35-14.249-36.306-14.249-36.306s-22.83,11.956-14.249,36.306l-0.309,0.103
					c-9.096-24.144-34.245-18.63-34.245-18.63s-10.049,24.453,13.296,37.492l-0.18,0.283c-22.933-13.734-39.089,7.215-39.089,7.215
					s7.911,24.814,33.678,20.253l0.052,0.335c-25.768,4.535-24.711,30.56-24.711,30.56s22.16,14.043,39.012-6.313l0.232,0.206
					c-17.11,20.124,0.541,39.502,0.541,39.502s25.793-3.453,25.819-29.607h0.335c0,26.154,25.793,29.607,25.793,29.607
					s17.677-19.377,0.567-39.502l0.232-0.206C643.612,654.053,665.772,640.01,665.772,640.01z"/>
			</g>
			<g>
				<path fill="#92D1C8" d="M629.104,284.959c25.613,24.685,56.766,67.356,42.336,120.309h-1.288c0,0-55.246-26.438-70.165-79.647
					C604.78,308.51,616.762,296.425,629.104,284.959z"/>
			</g>
			<g>
				<path fill="#03273D" d="M663.556,1107.175c36.358,22.701,25.613,58.338,5.643,64.264c-25.252,7.498-70.242-8.916-55.194-118.299
					c0.283-2.113,2.834-2.422,3.685-0.438C622.946,1064.813,636.577,1090.349,663.556,1107.175z"/>
			</g>
			<g>
				<path fill="#03273D" d="M658.093,441.935c10.797,4.123,18.475,14.584,18.475,26.85c0,15.873-12.884,28.757-28.757,28.757
					c-2.963,0-5.849-0.464-8.555-1.288c-0.129-0.052-0.258-0.077-0.387-0.129c-2.963-1.108-5.772-2.731-8.323-4.87
					c-12.162-10.204-13.76-28.344-3.556-40.507C634.799,441.445,647.245,438.327,658.093,441.935z"/>
			</g>
			<g>
				<path fill="#0A6D7A" d="M641.061,609.449c25.768,4.535,24.711,30.56,24.711,30.56s-22.16,14.043-39.012-6.313
					c-4.252-5.128-8.143-12.42-11.286-22.701C626.09,608.522,634.464,608.29,641.061,609.449z"/>
			</g>
			<g>
				<path fill="#FFCB3F" d="M640.545,151.895c13.657,25.304,25.664,49.242,23.99,78.952c-0.412,7.318-2.293,13.734-5.154,19.558
					c-27.056-35.662-59.394-65.063-59.394-65.063s-32.313,29.401-59.368,65.037c-2.86-5.798-4.741-12.214-5.154-19.532
					c-1.675-29.71,10.307-53.648,23.964-78.952c14.765-27.365,28.757-55.194,40.558-83.976
					C611.814,96.701,625.806,124.53,640.545,151.895z"/>
			</g>
			<g>
				<path fill="#03273D" d="M681.078,909.95c-7.215,14.172-14.971,27.932-16.594,42.877c-30.766-19.841-59.678-44.836-63.053-70.088
					h-2.86c-3.35,25.252-32.261,50.247-63.053,70.062c-1.649-14.919-9.379-28.705-16.62-42.851
					c32.519-14.404,76.375-43.856,80.91-98.561h0.361C604.728,866.094,648.559,895.521,681.078,909.95z"/>
			</g>
			<g>
				<path fill="#0A6D7A" d="M635.572,581.698c23.01-13.837,39.218,7.163,39.218,7.163s-7.911,24.866-33.755,20.253
					c-6.596-1.185-14.327-4.252-23.423-10.178C623.925,590.562,629.955,585.099,635.572,581.698z"/>
			</g>
			<g>
				<path fill="#0A6D7A" d="M648.817,543.871c0,0,10.075,24.531-13.425,37.543c-5.746,3.169-13.502,5.669-23.912,6.931
					c-0.593-11.08,0.696-19.48,3.092-25.819C623.642,538.357,648.817,543.871,648.817,543.871z"/>
			</g>
			<g>
				<path fill="#FFCB3F" d="M641.035,609.114l0.026,0.335c-6.596-1.16-14.971-0.928-25.587,1.546
					c3.144,10.281,7.035,17.573,11.286,22.701l-0.232,0.206c-4.303-5.076-10.848-10.178-20.408-15.048
					c-4.277,10.024-5.952,18.218-5.952,24.943h-0.335c0-6.725-1.701-14.919-5.952-24.943c-9.56,4.87-16.105,9.972-20.408,15.048
					l-0.232-0.206c4.252-5.128,8.168-12.42,11.286-22.701c-10.616-2.474-18.991-2.706-25.587-1.546l-0.052-0.335
					c6.596-1.16,14.378-4.252,23.5-10.178c-6.339-8.426-12.42-13.914-18.089-17.29l0.18-0.283
					c5.772,3.195,13.554,5.695,24.015,6.983c0.593-11.106-0.696-19.506-3.066-25.845l0.309-0.103
					c2.242,6.39,6.674,13.657,14.249,21.774c7.576-8.117,12.008-15.383,14.249-21.774l0.335,0.129
					c-2.396,6.339-3.685,14.739-3.092,25.819c10.41-1.263,18.166-3.762,23.912-6.931l0.18,0.283
					c-5.617,3.401-11.647,8.864-17.96,17.239C626.708,604.863,634.438,607.929,641.035,609.114z"/>
			</g>
			<g>
				<path fill="#50A5A6" d="M659.381,250.405c-6.674,13.476-18.656,23.732-30.277,34.554
					c-15.589-15.022-29.117-23.397-29.117-23.397s-13.528,8.374-29.092,23.397c-11.647-10.822-23.629-21.104-30.277-34.58
					c27.056-35.637,59.368-65.037,59.368-65.037S632.325,214.742,659.381,250.405z"/>
			</g>
			<g>
				<path fill="#03273D" d="M609.186,716.591c14.919,5.437,22.624,21.954,17.187,36.873c-4.174,11.441-14.868,18.656-26.36,18.913
					c-11.518-0.232-22.212-7.447-26.386-18.913c-5.437-14.919,2.268-31.436,17.187-36.873c3.041-1.108,6.133-1.649,9.199-1.701
					C603.079,714.942,606.146,715.483,609.186,716.591z"/>
			</g>
			<g>
				<path fill="#0A6D7A" d="M626.528,633.903c17.11,20.124-0.567,39.502-0.567,39.502s-25.793-3.453-25.793-29.607
					c0-6.725,1.675-14.919,5.952-24.943C615.68,623.725,622.224,628.827,626.528,633.903z"/>
			</g>
			<g>
				<path fill="#03273D" d="M599.987,405.267c15.692,0.258,28.293,13.038,28.293,28.757s-12.6,28.499-28.293,28.757
					c-15.667-0.258-28.293-13.038-28.293-28.757S584.32,405.525,599.987,405.267z"/>
			</g>
			<g>
				<path fill="#0A6D7A" d="M599.987,526.091c0,0,22.83,11.956,14.249,36.306c-2.242,6.39-6.674,13.657-14.249,21.774
					c-7.576-8.117-12.008-15.383-14.249-21.774C577.157,538.048,599.987,526.091,599.987,526.091z"/>
			</g>
			<g>
				<path fill="#92D1C8" d="M604.058,811.287l-3.891,0.103h-0.361c-4.535,54.705-48.391,84.157-80.91,98.561
					c-7.679-14.997-14.791-30.431-13.451-48.16c32.209-44.887,93.15-50.839,93.15-50.839h2.783
					C601.379,810.952,602.332,811.055,604.058,811.287z"/>
			</g>
			<g>
				<path fill="#FFCB3F" d="M629.104,284.959c-12.343,11.467-24.325,23.552-29.117,40.661c-4.793-17.11-16.749-29.195-29.092-40.661
					c15.564-15.022,29.092-23.397,29.092-23.397S613.515,269.936,629.104,284.959z"/>
			</g>
			<g>
				<path fill="#0A6D7A" d="M593.88,618.855c4.252,10.024,5.952,18.218,5.952,24.943c-0.026,26.154-25.819,29.607-25.819,29.607
					s-17.651-19.377-0.541-39.502C577.776,628.827,584.32,623.725,593.88,618.855z"/>
			</g>
			<g>
				<path fill="#0A6D7A" d="M585.428,562.501c2.371,6.339,3.659,14.739,3.066,25.845c-10.462-1.288-18.243-3.788-24.015-6.983
					c-23.345-13.038-13.296-37.492-13.296-37.492S576.333,538.357,585.428,562.501z"/>
			</g>
			<g>
				<path fill="#03273D" d="M585.995,1053.141c15.048,109.383-29.942,125.797-55.194,118.299
					c-19.97-5.927-30.741-41.563,5.643-64.264c26.979-16.826,40.61-42.362,45.84-54.473
					C583.161,1050.719,585.712,1051.028,585.995,1053.141z"/>
			</g>
			<g>
				<path fill="#0A6D7A" d="M584.527,610.995c-3.118,10.281-7.035,17.573-11.286,22.701c-16.852,20.356-39.012,6.313-39.012,6.313
					s-1.056-26.025,24.711-30.56C565.536,608.29,573.91,608.522,584.527,610.995z"/>
			</g>
			<g>
				<path fill="#03273D" d="M572.983,450.747c10.23,12.162,8.632,30.303-3.53,40.507c-2.551,2.139-5.36,3.762-8.323,4.87
					c-0.129,0.052-0.258,0.077-0.387,0.129c-2.706,0.825-5.566,1.288-8.555,1.288c-15.873,0-28.757-12.884-28.757-28.757
					c0-12.291,7.704-22.779,18.527-26.876C552.807,438.353,565.201,441.471,572.983,450.747z"/>
			</g>
			<g>
				<path fill="#92D1C8" d="M570.896,284.959c12.343,11.467,24.299,23.552,29.092,40.661c-14.894,53.21-70.139,79.647-70.139,79.647
					h-1.288C514.13,352.315,545.257,309.644,570.896,284.959z"/>
			</g>
			<g>
				<path fill="#03273D" d="M552.085,732.824c14.816,5.488,22.444,21.902,17.032,36.796c-5.36,14.739-21.516,22.392-36.281,17.367
					c-14.739-5.514-22.289-21.902-16.904-36.745c5.282-14.507,21.078-22.186,35.662-17.599
					C551.75,732.696,551.905,732.747,552.085,732.824z"/>
			</g>
			<g>
				<path fill="#03273D" d="M540.619,250.379c6.648,13.476,18.63,23.758,30.277,34.58c-25.639,24.685-56.766,67.356-42.336,120.309
					l-0.335,0.129c-22.959-49.86-74.236-62.538-109.744-64.986c1.958-15.77,4.509-31.333,0.953-45.918
					c35.714,8.117,71.428,21.696,83.229,44.294l2.68-0.979C499.88,312.917,518.484,279.548,540.619,250.379z"/>
			</g>
			<g>
				<path fill="#0A6D7A" d="M564.299,581.646c5.669,3.376,11.75,8.864,18.089,17.29c-9.122,5.927-16.904,9.019-23.5,10.178
					c-25.768,4.561-33.678-20.253-33.678-20.253S541.366,567.912,564.299,581.646z"/>
			</g>
			<g>
				<path fill="#FFCB3F" d="M535.517,952.802c0.721,6.442,0.283,13.116-1.829,20.124c-8.581,28.499-28.035,46.871-49.551,65.991
					c-23.217,20.666-45.866,42.027-66.815,65.037c-1.263-31.076-4.896-62.022-9.405-92.763c-4.174-28.473-7.266-55.065,4.484-82.405
					c2.886-6.725,6.828-12.111,11.518-16.594c13.245,42.748,33.549,81.425,33.549,81.425S497.896,977.049,535.517,952.802z"/>
			</g>
			<g>
				<path fill="#03273D" d="M533.404,695.693c7.936,13.76,3.221,31.359-10.539,39.296c-10.694,6.158-23.655,4.69-32.647-2.706
					c-0.052-0.026-0.077-0.077-0.129-0.129c-8.349-7.627-11.724-19.815-7.627-31.076c5.437-14.919,21.928-22.624,36.873-17.187
					c2.912,1.056,5.566,2.551,7.885,4.355c0.103,0.077,0.232,0.18,0.335,0.283C529.822,690.54,531.806,692.936,533.404,695.693z"/>
			</g>
			<g>
				<path fill="#50A5A6" d="M535.517,952.802c-37.621,24.247-78.05,40.816-78.05,40.816s-20.305-38.677-33.549-81.425
					c10.848-10.384,25.639-15.95,40.275-22.134c9.508,19.429,19.351,31.926,19.351,31.926s15.564-3.221,35.353-12.033
					C526.137,924.097,533.868,937.882,535.517,952.802z"/>
			</g>
			<g>
				<path fill="#92D1C8" d="M528.225,405.396l-0.979,0.825c0,0-59.317,15.254-104.925-15.924
					c-7.344-16.182-5.927-33.137-3.839-49.886C453.988,342.858,505.266,355.536,528.225,405.396z"/>
			</g>
			<g>
				<path fill="#03273D" d="M513.666,455.153c10.101,12.033,8.658,29.916-3.144,40.172c-12.162,9.921-30.071,8.271-40.197-3.814
					c-10.101-12.033-8.658-29.916,3.144-40.172C485.631,441.419,503.539,443.094,513.666,455.153z"/>
			</g>
			<g>
				<path fill="#92D1C8" d="M466.795,762.972c0,0,42.851,43.728,38.651,98.818c-10.359,14.456-25.742,21.722-41.254,28.267
					c-15.641-31.952-30.303-82.714,1.391-127.524L466.795,762.972z"/>
			</g>
			<g>
				<path fill="#03273D" d="M482.049,503.493c15.641,2.757,26.077,17.677,23.32,33.317c-0.541,3.041-1.546,5.901-2.912,8.503
					c-0.052,0.129-0.129,0.258-0.206,0.361c-1.572,2.603-3.607,4.973-6.055,7.035c-12.162,10.23-30.303,8.632-40.507-3.53
					c-7.988-9.534-8.761-22.727-2.886-32.879c0.052-0.052,0.077-0.103,0.103-0.155C459.013,506.766,470.325,501.432,482.049,503.493
					z"/>
			</g>
			<g>
				<path fill="#FFCB3F" d="M505.446,861.791c-1.34,17.728,5.772,33.163,13.451,48.16c-19.789,8.813-35.353,12.033-35.353,12.033
					s-9.843-12.497-19.351-31.926C479.704,883.513,495.087,876.247,505.446,861.791z"/>
			</g>
			<g>
				<path fill="#03273D" d="M488.955,622.153c0.387,2.86,0.361,5.849-0.18,8.838c-2.757,15.641-17.677,26.077-33.317,23.32
					c-12.033-2.113-21.001-11.467-23.217-22.804c-1.701-11.338,3.53-23.062,14.069-29.143c13.734-7.936,31.333-3.221,39.27,10.539
					c1.623,2.809,2.731,5.798,3.298,8.813C488.929,621.869,488.955,621.998,488.955,622.153z"/>
			</g>
			<g>
				<path fill="#03273D" d="M470.273,43.311c20.794-1.263,43.083,28.55,16.672,62.332c-19.583,25.02-23.655,53.7-24.453,66.867
					c-0.129,2.164-2.628,2.757-3.633,0.85C407.323,75.726,443.99,44.908,470.273,43.311z"/>
			</g>
			<g>
				<path fill="#03273D" d="M479.344,671.626c7.679,13.708,2.912,31.076-10.719,38.935c-13.579,7.859-30.973,3.324-39.012-10.127
					c-7.653-13.683-2.886-31.024,10.719-38.883C453.937,653.692,471.304,658.227,479.344,671.626z"/>
			</g>
			<g>
				<path fill="#03273D" d="M417.27,817.187c-19.197,16.156-56.56,16.594-92.119,12.085c8.323-12.471,11.235-27.984,14.791-43.47
					c34.194,9.843,86.708,15.486,125.359-23.5l0.283,0.232c-31.694,44.81-17.032,95.572-1.391,127.524
					c-14.636,6.184-29.427,11.75-40.275,22.134c-10.822-34.992-16.904-72.69-3.247-94.206L417.27,817.187z"/>
			</g>
			<g>
				<path fill="#92D1C8" d="M464.656,761.169l0.644,1.134c-38.651,38.986-91.166,33.343-125.359,23.5
					c3.762-16.44,8.246-32.828,20.666-45.557C414.152,726.563,464.656,761.169,464.656,761.169z"/>
			</g>
			<g>
				<path fill="#03273D" d="M439.455,545.005c15.229,2.68,25.51,16.878,23.526,32.055c-0.026,0.129-0.052,0.283-0.077,0.412
					c-2.783,15.589-17.677,26.025-33.292,23.268c-15.229-2.68-25.51-16.878-23.526-32.055c0-0.129,0.026-0.232,0.052-0.361
					c0-0.077,0.026-0.129,0.052-0.206C409.024,552.58,423.892,542.248,439.455,545.005z"/>
			</g>
			<g>
				<path fill="#03273D" d="M432.55,182.945c0.464,2.087-1.829,3.247-3.324,1.675c-9.07-9.586-30.612-28.937-61.713-35.508
					c-41.95-8.89-44.011-46.072-27.288-58.467C361.405,74.953,409.282,75.005,432.55,182.945z"/>
			</g>
			<g>
				<path fill="#92D1C8" d="M422.32,390.297c22.779,50.324-2.551,106.085-2.551,106.085l-0.979,0.825
					c-45.119-31.282-48.675-83.976-44.913-119.355C390.703,378.701,407.632,380.273,422.32,390.297z"/>
			</g>
			<g>
				<path fill="#50A5A6" d="M419.434,294.493c3.556,14.584,1.005,30.148-0.953,45.918c-21.593-1.469-37.337,0.825-37.337,0.825
					s-4.999,15.1-7.266,36.616c-15.873-0.825-31.668-0.979-45.402-7.009c-2.19-44.707,3.685-87.996,3.685-87.996
					S375.784,284.572,419.434,294.493z"/>
			</g>
			<g>
				<path fill="#03273D" d="M355.453,458.632c-18.527-16.517-25.252-52.592-26.979-87.79c13.734,6.03,29.53,6.184,45.402,7.009
					c-3.762,35.379-0.206,88.073,44.913,119.355l-0.18,0.335c-49.628-23.423-97.066-0.18-125.823,20.769
					c-8.658-13.348-16.697-26.901-28.782-35.817c31.617-16.234,66.558-28.55,90.109-20.356L355.453,458.632z"/>
			</g>
			<g>
				<path fill="#92D1C8" d="M418.609,497.541l-0.232,1.263c0,0-35.611,49.809-90.599,55.246
					c-16.027-7.704-25.845-21.593-34.992-35.74C321.543,497.361,368.981,474.118,418.609,497.541z"/>
			</g>
			<g>
				<path fill="#FFCB3F" d="M418.481,340.411c-2.087,16.749-3.504,33.704,3.839,49.886c-14.688-10.024-31.617-11.595-48.443-12.446
					c2.268-21.516,7.266-36.616,7.266-36.616S396.887,338.942,418.481,340.411z"/>
			</g>
			<g>
				<path fill="#FFCB3F" d="M410.828,276.224c4.38,5.849,7.06,11.956,8.606,18.269c-43.65-9.921-87.275-11.647-87.275-11.647
					s-5.875,43.289-3.685,87.996c-5.952-2.628-11.492-6.339-16.517-11.673c-20.382-21.671-26.566-47.721-32.39-75.885
					c-6.287-30.457-13.451-60.76-22.907-90.393c27.546,14.456,56.147,26.772,85.059,38.239
					C368.44,241.747,393.022,252.363,410.828,276.224z"/>
			</g>
			<g>
				<path fill="#92D1C8" d="M394.517,639.701c0,0,4.715,61.043-33.91,100.545c-17.238,4.406-33.678,0.077-49.783-4.87
					c8.374-33.652,28.885-80.42,79.106-95.701L394.517,639.701z"/>
			</g>
			<g>
				<path fill="#92D1C8" d="M394.027,636.943l-0.232,1.288c-0.825,0.077-1.649,0.155-2.474,0.206
					c-53.287,3.659-89.078-33.73-108.662-62.796c13.451-10.178,27.417-19.841,45.119-21.593
					C377.587,577.961,394.027,636.943,394.027,636.943z"/>
			</g>
			<g>
				<path fill="#03273D" d="M322.806,652.559l-1.134-3.144c-25.072,0-53.957-23.68-78.282-49.989
					c14.404-4.2,26.592-14.198,39.27-23.783c19.583,29.066,55.374,66.454,108.662,62.796l0.232,0.773
					c-0.541,0.155-1.082,0.309-1.623,0.464c-50.221,15.28-70.732,62.048-79.106,95.701c-15.203-4.664-30.096-9.895-45.067-8.916
					C279.748,693.194,298.971,660.83,322.806,652.559z"/>
			</g>
			<g>
				<path fill="#FFCB3F" d="M310.824,735.375c16.105,4.947,32.544,9.276,49.783,4.87c-12.42,12.729-16.904,29.117-20.666,45.557
					c-20.794-5.978-34.812-13.528-34.812-13.528S305.619,756.376,310.824,735.375z"/>
			</g>
			<g>
				<path fill="#50A5A6" d="M339.941,785.802c-3.556,15.486-6.468,30.998-14.791,43.47c-44.423-5.592-86.038-18.888-86.038-18.888
					s9.302-42.671,26.644-83.925c14.971-0.979,29.865,4.252,45.067,8.916c-5.205,21.001-5.695,36.899-5.695,36.899
					S319.147,779.824,339.941,785.802z"/>
			</g>
			<g>
				<path fill="#03273D" d="M323.991,1029.847c13.27,40.764-17.883,61.146-37.002,52.849
					c-24.144-10.462-48.056-51.973,33.781-126.106c1.572-1.417,3.736-0.026,3.118,2.061
					C320.126,971.277,314.148,999.621,323.991,1029.847z"/>
			</g>
			<g>
				<path fill="#FFCB3F" d="M325.151,829.272c-3.607,5.411-8.22,10.23-14.353,14.249c-24.891,16.337-51.612,17.883-80.369,18.733
					c-31.076,0.902-62.177,2.68-92.995,6.854c19.016-24.634,36.126-50.633,52.437-77.096c15.1-24.505,29.813-46.845,56.405-60.245
					c6.519-3.298,13.013-4.896,19.48-5.308c-17.342,41.254-26.644,83.925-26.644,83.925S280.727,823.681,325.151,829.272z"/>
			</g>
			<g>
				<path fill="#03273D" d="M296.755,935.898c1.933-0.979,3.685,0.902,2.577,2.706c-58.802,93.485-103.817,77.122-118.35,55.143
					c-11.467-17.367,3.195-51.587,45.634-45.583C258.103,952.596,284.953,941.773,296.755,935.898z"/>
			</g>
			<g>
				<path fill="#FFCB3F" d="M292.787,518.31c9.147,14.146,18.965,28.035,34.992,35.74c-17.702,1.752-31.668,11.415-45.119,21.593
					c-12.059-17.934-17.96-32.725-17.96-32.725S275.29,531.039,292.787,518.31z"/>
			</g>
			<g>
				<path fill="#50A5A6" d="M264.004,482.493c12.085,8.916,20.124,22.469,28.782,35.817c-17.496,12.729-28.087,24.608-28.087,24.608
					s5.901,14.791,17.96,32.725c-12.678,9.586-24.866,19.583-39.27,23.783c-30.431-32.828-53.751-69.753-53.751-69.753
					S224.193,502.952,264.004,482.493z"/>
			</g>
			<g>
				<path fill="#FFCB3F" d="M245.632,474.041c7.138,1.675,13.116,4.638,18.372,8.452c-39.811,20.459-74.365,47.18-74.365,47.18
					s23.32,36.925,53.751,69.753c-6.236,1.83-12.884,2.551-20.15,1.701c-29.555-3.479-51.045-19.455-73.618-37.311
					c-24.376-19.274-49.345-37.904-75.628-54.524c30.38-6.622,60.219-15.564,89.723-25.355
					C191.031,474.891,216.669,467.213,245.632,474.041z"/>
			</g>
			<g>
				<path fill="#03273D" d="M218.576,361.385c1.288,1.726-0.258,3.788-2.242,2.989c-102.246-41.666-93.974-88.846-74.855-106.961
					c15.126-14.327,51.355-5.823,52.823,37.028C195.411,326.213,210.717,350.795,218.576,361.385z"/>
			</g>
			<g>
				<path fill="#03273D" d="M202.342,388.622c1.675,1.314,0.67,3.659-1.469,3.427c-13.116-1.495-42.053-2.474-70.113,12.471
					c-37.853,20.15-63.337-6.983-58.467-27.262C78.426,351.645,115.119,320.905,202.342,388.622z"/>
			</g>
			<g>
				<path fill="#03273D" d="M158.203,694.173c2.113-0.103,2.86,2.371,1.056,3.556c-11.003,7.266-33.807,25.149-45.686,54.627
					c-16.027,39.759-53.004,35.353-62.306,16.697C39.492,745.502,47.84,698.347,158.203,694.173z"/>
			</g>
			<g>
				<path fill="#03273D" d="M153.101,662.866c2.113,0.515,2.268,3.066,0.232,3.711c-105.132,33.833-129.095-7.627-126.106-33.807
					c2.371-20.691,35.611-37.466,64.264-5.592C112.749,650.806,140.294,659.799,153.101,662.866z"/>
			</g>
		</g>
	</g>
</g>
</svg>
